# xmcd
#
# Track frame offsets: 
#        150
#        23261
#        40507
#        61118
#        77857
#        100884
#        125566
#        142658
#        159302
#        174454
#
# Disc length: 2616 seconds
#
# Revision: 0
# Processed by: cddbd v1.5.2PL0 Copyright (c) Steve Scherf et al.
# Submitted via: ExactAudioCopyFreeDBPlugin 1.0
#
DISCID=690a360a
DTITLE=Hard Times - Siedem
DYEAR=2016
DGENRE=Blues
TTITLE0=Szanta o tonącej głowie
TTITLE1=Siedem
TTITLE2=Róża
TTITLE3=Diabeł
TTITLE4=Co nagle
TTITLE5=Piosenka dla młodej mamy
TTITLE6=Zima
TTITLE7=Ballada o Czarnym Marcinie
TTITLE8=Jezioro
TTITLE9=Podziemia miasta
EXTD=
EXTT0=
EXTT1=
EXTT2=
EXTT3=
EXTT4=
EXTT5=
EXTT6=
EXTT7=
EXTT8=
EXTT9=
PLAYORDER=
